<?xml version="1.0" encoding="UTF-8"?>
<svg id="Layer_2" data-name="Layer 2" xmlns="http://www.w3.org/2000/svg" width="120" height="30" viewBox="0 0 225.3 36.47">
  <defs>
    <style>
      .cls-1 {
        fill: #006aff;
      }

      .cls-2 {
        fill: #0c0c0c;
      }

      .cls-3 {
        fill: #57ebb9;
      }
    </style>
  </defs>
  <g id="layer">
    <g>
      <g>
        <path class="cls-1" d="m23.64,29.47L.03,19.97,0,31.45c.2,0,.41,0,.61,0,1.68,0,3.41.13,5.16.37,2.81.39,5.67,1.03,7.85,1.53l7.71,1.9c2.15.48,4.72,1.01,7.17,1.16.54.05,1.07.06,1.59.06,1.62,0,3.22-.2,4.75-.59,1.73-.43,3.44-1.14,5.36-2.21,1.58-.9,3.09-1.93,4.5-3.08.96-.77,1.86-1.59,2.68-2.42v-8.06s-23.74,9.37-23.74,9.37Z"/>
        <path class="cls-3" d="m9.71,6.46c.02.09.2.43.57.8.02.02.04.03.06.05l4.51-1.65c-.93-.45-1.82-.7-2.57-.7-.08,0-.16,0-.25,0-.43.03-.82.14-1.17.35-.19.11-.35.22-.56.42-.19.18-.36.35-.44.47-.11.16-.14.25-.14.25l-.78-.23c.04-.13.12-.3.26-.5.13-.19.35-.41.56-.6.25-.23.45-.37.7-.52.47-.27.97-.43,1.54-.47,1.14-.09,2.52.35,3.79,1.07,1.28.72,2.5,1.71,3.53,2.86,1.02,1.15,1.9,2.49,2.25,3.94h0s.02.06-.01.1c-.03.03-.1.06-.15.05l-.48-.05-.6-.07c-.8-.1-1.59-.24-2.37-.42-1.56-.35-3.08-.85-4.51-1.47-1.41-.63-2.77-1.4-3.71-2.31-.46-.45-.77-.92-.81-1.23-.02-.15-.01-.25.02-.39l.78.23Zm15.33,5.58c.37-1.45,1.26-2.78,2.28-3.93,1.04-1.14,2.26-2.12,3.55-2.83,1.28-.71,2.66-1.14,3.8-1.04.57.04,1.07.2,1.54.48.24.15.44.29.69.52.2.19.42.41.55.6.14.2.22.37.26.5.03.13.04.24.02.39-.04.3-.36.78-.82,1.22-.94.9-2.31,1.66-3.72,2.28-1.43.62-2.95,1.1-4.52,1.44-.78.18-1.57.31-2.37.41l-.6.07-.48.05c-.05,0-.12-.02-.15-.05-.03-.04-.02-.06-.01-.1h0Zm11.45-4.85c.27-.29.4-.51.41-.57v-.06s-.02-.09-.13-.25c-.08-.12-.24-.29-.43-.47-.22-.2-.38-.31-.56-.42-.36-.21-.75-.33-1.19-.37-.08,0-.16,0-.24,0-.65,0-1.41.18-2.21.52l4.35,1.63Zm-31.01,1.91c-.27-.43-.48-.88-.61-1.34-.24-.78-.27-1.68-.09-2.47.16-.7.46-1.38.91-2.02.36-.5.75-.94,1.23-1.36.27-.24.81-.69,1.45-1.02C9.41.31,10.64,0,11.84,0h.11c1.07.01,2.18.26,3.28.74.85.36,1.7.87,2.6,1.57.61.49,1.19,1.03,1.74,1.62l4.17-1.53,3.56,1.33c.49-.5,1.01-.97,1.55-1.39.89-.69,1.75-1.19,2.6-1.54,1.11-.47,2.22-.71,3.28-.72h.11c1.2,0,2.43.33,3.46.9.64.35,1.18.8,1.45,1.04.48.43.87.86,1.22,1.37.44.64.74,1.32.89,2.01.18.8.14,1.7-.1,2.47-.11.38-.28.74-.48,1.1l6.12,2.29-.02,5.39-23.72,9.36L0,16.48l.02-5.39,5.47-2Zm18.62,3.79c.22.29.53.48.89.56.05,0,.11.02.16.02h.08s.19.01.19.01h.32s.63.01.63.01c.84,0,1.69-.03,2.53-.09,1.69-.12,3.39-.35,5.08-.78.85-.21,1.68-.49,2.52-.84.84-.35,1.66-.8,2.46-1.41.4-.31.78-.67,1.14-1.11.35-.44.67-.98.87-1.62.2-.64.24-1.38.09-2.05-.14-.67-.43-1.25-.76-1.73-.34-.48-.69-.87-1.09-1.22-.36-.32-.82-.67-1.29-.93-.96-.54-2.1-.82-3.17-.8-1.08,0-2.08.28-2.98.65-.9.37-1.69.89-2.42,1.44-1.44,1.13-2.6,2.48-3.56,3.95-.48.73-.89,1.51-1.24,2.32-.34.81-.62,1.67-.72,2.56h0c-.06.38.06.78.29,1.06Zm-17.6-3.74c.35.45.73.81,1.13,1.12.79.62,1.61,1.07,2.45,1.42.83.36,1.67.64,2.52.86,1.69.45,3.38.68,5.07.82.85.06,1.69.1,2.53.11h.63s.31,0,.31,0h.19s.08-.01.08-.01c.05,0,.11-.01.16-.02.35-.07.67-.26.89-.55.22-.28.35-.68.3-1.05h0c-.1-.91-.37-1.77-.71-2.58-.34-.81-.75-1.59-1.22-2.32-.94-1.48-2.1-2.83-3.53-3.97-.72-.56-1.51-1.08-2.41-1.46-.89-.38-1.89-.66-2.97-.67-1.07-.02-2.21.25-3.18.78-.48.25-.94.6-1.3.92-.41.36-.76.74-1.1,1.22-.33.47-.63,1.05-.78,1.72-.15.67-.13,1.41.07,2.05.19.64.51,1.18.86,1.63Z"/>
      </g>
      <g>
        <path class="cls-2" d="m82.52,9.13l-3.62,3.58c-2.29-2.43-4.97-3.64-8.02-3.64-2.66,0-4.89.88-6.69,2.65-1.8,1.76-2.7,3.91-2.7,6.43s.93,4.82,2.8,6.64,4.17,2.72,6.9,2.72c1.78,0,3.28-.37,4.5-1.12,1.22-.75,2.21-1.92,2.95-3.51h-7.83v-4.84h13.6l.04,1.14c0,2.37-.61,4.61-1.84,6.73-1.23,2.12-2.81,3.74-4.76,4.85s-4.23,1.67-6.86,1.67c-2.81,0-5.31-.61-7.51-1.83s-3.94-2.96-5.22-5.21c-1.28-2.25-1.92-4.69-1.92-7.3,0-3.58,1.18-6.69,3.55-9.34,2.81-3.15,6.46-4.72,10.96-4.72,2.35,0,4.55.44,6.6,1.31,1.73.74,3.42,2,5.07,3.79Z"/>
        <path class="cls-2" d="m88.05,4.71h5.11v27.04h-5.11V4.71Z"/>
        <path class="cls-2" d="m98.27,4.71h11.66v5.02h-6.55v4.91h8.31v4.95h-8.31v12.17h-5.11V4.71Z"/>
        <path class="cls-2" d="m112.85,4.71h14.95v5.07h-4.93v21.97h-5.22V9.79h-4.8v-5.07Z"/>
        <path class="cls-2" d="m130.56,4.71h5.46c2.95,0,5.08.27,6.39.82s2.33,1.43,3.09,2.65c.75,1.22,1.13,2.68,1.13,4.38,0,1.89-.49,3.46-1.48,4.71-.99,1.25-2.33,2.12-4.02,2.61-.99.28-2.8.42-5.42.42v11.45h-5.15V4.71Zm5.15,10.57h1.64c1.29,0,2.18-.09,2.68-.28.5-.18.9-.49,1.19-.91.29-.43.43-.94.43-1.54,0-1.05-.4-1.81-1.21-2.29-.59-.36-1.68-.54-3.27-.54h-1.45v5.55Z"/>
        <path class="cls-2" d="m163.68,4.03c3.83,0,7.12,1.39,9.87,4.16s4.13,6.15,4.13,10.13-1.36,7.29-4.08,10.02-6.01,4.1-9.89,4.1-7.43-1.4-10.12-4.21-4.03-6.14-4.03-10c0-2.59.63-4.96,1.88-7.13,1.25-2.17,2.97-3.89,5.16-5.16s4.55-1.9,7.07-1.9Zm-.06,5.04c-2.5,0-4.61.87-6.31,2.61-1.71,1.74-2.56,3.95-2.56,6.64,0,2.99,1.07,5.36,3.22,7.1,1.67,1.36,3.58,2.04,5.74,2.04,2.44,0,4.52-.88,6.24-2.65,1.72-1.77,2.58-3.94,2.58-6.53s-.87-4.75-2.6-6.54c-1.73-1.78-3.83-2.68-6.31-2.68Z"/>
        <path class="cls-2" d="m194.55,4.03c3.83,0,7.12,1.39,9.87,4.16s4.13,6.15,4.13,10.13-1.36,7.29-4.08,10.02-6.01,4.1-9.89,4.1-7.43-1.4-10.12-4.21-4.03-6.14-4.03-10c0-2.59.63-4.96,1.88-7.13,1.25-2.17,2.97-3.89,5.16-5.16s4.55-1.9,7.07-1.9Zm-.06,5.04c-2.5,0-4.61.87-6.31,2.61-1.71,1.74-2.56,3.95-2.56,6.64,0,2.99,1.07,5.36,3.22,7.1,1.67,1.36,3.58,2.04,5.74,2.04,2.44,0,4.52-.88,6.24-2.65,1.72-1.77,2.58-3.94,2.58-6.53s-.87-4.75-2.6-6.54c-1.73-1.78-3.83-2.68-6.31-2.68Z"/>
        <path class="cls-2" d="m212.65,4.71h5.15v22.14h7.5v4.91h-12.65V4.71Z"/>
      </g>
    </g>
  </g>
</svg>